<svg width="24" height="26" viewBox="0 0 24 26" fill="none" xmlns="http://www.w3.org/2000/svg">
<path d="M14.7942 21.75C15.8754 21.75 16.4467 23.03 15.7254 23.835C15.2569 24.3593 14.6829 24.7787 14.0409 25.0656C13.399 25.3526 12.7036 25.5006 12.0004 25.5C11.2973 25.5006 10.6019 25.3526 9.95999 25.0656C9.31804 24.7787 8.74399 24.3593 8.27545 23.835C7.58545 23.065 8.07795 21.8612 9.06795 21.7587L9.20545 21.7512L14.7942 21.75Z" fill="#101828"/>
<path d="M12.0004 0.5C13.6979 0.5 15.1329 1.62875 15.5942 3.17625L15.6517 3.39L15.6617 3.44375C17.0397 4.22113 18.2139 5.31388 19.0882 6.6325C19.9625 7.95112 20.512 9.4581 20.6917 11.03L20.7267 11.3888L20.7504 11.75V15.4137L20.7767 15.5838C20.9478 16.5048 21.4575 17.3284 22.2054 17.8925L22.4142 18.0388L22.6167 18.1625C23.6917 18.7712 23.3167 20.37 22.1454 20.4925L22.0004 20.5H2.00042C0.715422 20.5 0.266672 18.795 1.38417 18.1625C1.86046 17.893 2.27198 17.5224 2.58985 17.077C2.90771 16.6315 3.12422 16.1218 3.22417 15.5838L3.25042 15.405L3.25167 11.6925C3.32789 10.0598 3.80312 8.47076 4.63578 7.06433C5.46844 5.65791 6.63313 4.47701 8.02792 3.625L8.33792 3.4425L8.35042 3.38875C8.52724 2.64128 8.92911 1.96605 9.50178 1.45417C10.0745 0.942295 10.7904 0.618418 11.5529 0.52625L11.7804 0.505L12.0004 0.5Z" fill="#101828"/>
<path d="M14.7942 21.75C15.8754 21.75 16.4467 23.03 15.7254 23.835C15.2569 24.3593 14.6829 24.7787 14.0409 25.0656C13.399 25.3526 12.7036 25.5006 12.0004 25.5C11.2973 25.5006 10.6019 25.3526 9.95999 25.0656C9.31804 24.7787 8.74399 24.3593 8.27545 23.835C7.58545 23.065 8.07795 21.8612 9.06795 21.7587L9.20545 21.7512L14.7942 21.75Z" stroke="#101828"/>
<path d="M12.0004 0.5C13.6979 0.5 15.1329 1.62875 15.5942 3.17625L15.6517 3.39L15.6617 3.44375C17.0397 4.22113 18.2139 5.31388 19.0882 6.6325C19.9625 7.95112 20.512 9.4581 20.6917 11.03L20.7267 11.3888L20.7504 11.75V15.4137L20.7767 15.5838C20.9478 16.5048 21.4575 17.3284 22.2054 17.8925L22.4142 18.0388L22.6167 18.1625C23.6917 18.7712 23.3167 20.37 22.1454 20.4925L22.0004 20.5H2.00042C0.715422 20.5 0.266672 18.795 1.38417 18.1625C1.86046 17.893 2.27198 17.5224 2.58985 17.077C2.90771 16.6315 3.12422 16.1218 3.22417 15.5838L3.25042 15.405L3.25167 11.6925C3.32789 10.0598 3.80312 8.47076 4.63578 7.06433C5.46844 5.65791 6.63313 4.47701 8.02792 3.625L8.33792 3.4425L8.35042 3.38875C8.52724 2.64128 8.92911 1.96605 9.50178 1.45417C10.0745 0.942295 10.7904 0.618418 11.5529 0.52625L11.7804 0.505L12.0004 0.5Z" stroke="#101828"/>
</svg>
