<svg width="16" height="17" viewBox="0 0 16 17" fill="none" xmlns="http://www.w3.org/2000/svg">
<path d="M9.86251 14.3333C10.5833 14.3333 10.9642 15.1866 10.4833 15.7233C10.171 16.0728 9.78828 16.3524 9.36032 16.5437C8.93235 16.735 8.46879 16.8337 8.00001 16.8333C7.53124 16.8337 7.06768 16.735 6.63971 16.5437C6.21174 16.3524 5.82904 16.0728 5.51668 15.7233C5.05668 15.21 5.38501 14.4075 6.04501 14.3391L6.13668 14.3341L9.86251 14.3333Z" fill="#1D0D33"/>
<path d="M8 0.166626C9.13166 0.166626 10.0883 0.919126 10.3958 1.95079L10.4342 2.09329L10.4408 2.12913C11.3595 2.64738 12.1423 3.37588 12.7252 4.25496C13.308 5.13404 13.6744 6.13869 13.7942 7.18663L13.8175 7.42579L13.8333 7.66663V10.1091L13.8508 10.2225C13.9649 10.8365 14.3047 11.3856 14.8033 11.7616L14.9425 11.8591L15.0775 11.9416C15.7942 12.3475 15.5442 13.4133 14.7633 13.495L14.6667 13.5H1.33333C0.476663 13.5 0.177497 12.3633 0.922497 11.9416C1.24002 11.7619 1.51437 11.5149 1.72628 11.2179C1.93819 10.9209 2.08253 10.5812 2.14916 10.2225L2.16666 10.1033L2.1675 7.62829C2.21831 6.53986 2.53513 5.48047 3.09023 4.54285C3.64534 3.60523 4.4218 2.81796 5.35166 2.24996L5.55833 2.12829L5.56666 2.09246C5.68454 1.59415 5.95245 1.14399 6.33423 0.80274C6.71602 0.461489 7.1933 0.245571 7.70166 0.184126L7.85333 0.169959L8 0.166626Z" fill="#1D0D33"/>
</svg>
