<svg width="26" height="18" viewBox="0 0 26 18" fill="none" xmlns="http://www.w3.org/2000/svg">
  <path d="M10.5 9C10.5 9.66304 10.7634 10.2989 11.2322 10.7678C11.7011 11.2366 12.337 11.5 13 11.5C13.663 11.5 14.2989 11.2366 14.7678 10.7678C15.2366 10.2989 15.5 9.66304 15.5 9C15.5 8.33696 15.2366 7.70107 14.7678 7.23223C14.2989 6.76339 13.663 6.5 13 6.5C12.337 6.5 11.7011 6.76339 11.2322 7.23223C10.7634 7.70107 10.5 8.33696 10.5 9Z" stroke="#101828" stroke-width="2" stroke-linecap="round" stroke-linejoin="round"/>
  <path d="M24.25 9C21.25 14 17.5 16.5 13 16.5C8.5 16.5 4.75 14 1.75 9C4.75 4 8.5 1.5 13 1.5C17.5 1.5 21.25 4 24.25 9Z" stroke="#101828" stroke-width="2" stroke-linecap="round" stroke-linejoin="round"/>
</svg>
