<svg width="26" height="26" viewBox="0 0 26 26" fill="none" xmlns="http://www.w3.org/2000/svg">
<path d="M11.2313 11.2338C10.7625 11.7027 10.4992 12.3386 10.4993 13.0017C10.4994 13.6648 10.7629 14.3006 11.2319 14.7694C11.7008 15.2382 12.3368 15.5014 12.9998 15.5013C13.6629 15.5012 14.2987 15.2377 14.7675 14.7688M18.8512 18.8413C17.0978 19.9383 15.0683 20.5136 13 20.5C8.5 20.5 4.75 18 1.75 13C3.34 10.35 5.14 8.4025 7.15 7.1575M10.725 5.725C11.4738 5.57341 12.236 5.49803 13 5.5C17.5 5.5 21.25 8 24.25 13C23.4175 14.3875 22.5262 15.5837 21.5775 16.5875M1.75 1.75L24.25 24.25" stroke="#101828" stroke-width="2" stroke-linecap="round" stroke-linejoin="round"/>
</svg>
