<svg width="30" height="30" viewBox="0 0 30 30" fill="none" xmlns="http://www.w3.org/2000/svg">
<path fill-rule="evenodd" clip-rule="evenodd" d="M1.68216 0.0513916C1.89321 0.0513916 2.10219 0.0929616 2.29718 0.173728C2.49217 0.254495 2.66934 0.372876 2.81858 0.522113C2.96781 0.67135 3.08619 0.84852 3.16696 1.04351C3.24773 1.2385 3.2893 1.44748 3.2893 1.65853V7.01568C3.28935 7.72526 3.49074 8.42027 3.87005 9.01997C4.24936 9.61966 4.79104 10.0994 5.43216 10.4035V1.65853C5.43216 1.23229 5.60148 0.823511 5.90288 0.522113C6.20427 0.220715 6.61306 0.0513916 7.0393 0.0513916C7.46554 0.0513916 7.87432 0.220715 8.17572 0.522113C8.47712 0.823511 8.64644 1.23229 8.64644 1.65853V10.4035C9.28756 10.0994 9.82923 9.61966 10.2085 9.01997C10.5879 8.42027 10.7892 7.72526 10.7893 7.01568V1.65853C10.7893 1.23229 10.9586 0.823511 11.26 0.522113C11.5614 0.220715 11.9702 0.0513916 12.3964 0.0513916C12.8227 0.0513916 13.2315 0.220715 13.5329 0.522113C13.8343 0.823511 14.0036 1.23229 14.0036 1.65853V7.01568C14.0034 8.48793 13.5367 9.92226 12.6705 11.1127C11.8042 12.3031 10.583 13.1884 9.18215 13.6414V27.8571C9.18215 28.4254 8.95639 28.9705 8.55453 29.3723C8.15266 29.7742 7.60762 30 7.0393 30C6.47098 30 5.92593 29.7742 5.52407 29.3723C5.12221 28.9705 4.89644 28.4254 4.89644 27.8571V13.6435C3.49527 13.1904 2.27379 12.3048 1.4075 11.114C0.541213 9.9231 0.0747084 8.48829 0.0750124 7.01568V1.65853C0.0750124 1.23229 0.244336 0.823511 0.545734 0.522113C0.847131 0.220715 1.25591 0.0513916 1.68216 0.0513916ZM23.2179 0.0513916C19.4207 0.0513916 16.9157 3.75211 16.9157 7.52782C16.9157 10.5364 18.5057 13.4978 21.0729 14.5778V27.8571C21.0729 28.4254 21.2986 28.9705 21.7005 29.3723C22.1024 29.7742 22.6474 30 23.2157 30C23.784 30 24.3291 29.7742 24.731 29.3723C25.1328 28.9705 25.3586 28.4254 25.3586 27.8571V14.5757C27.93 13.4978 29.52 10.5364 29.52 7.52568C29.52 3.75211 27.0129 0.0513916 23.2179 0.0513916Z" fill="#684DF0"/>
</svg>
