<svg width="18" height="17" viewBox="0 0 18 17" fill="none" xmlns="http://www.w3.org/2000/svg">
<path d="M9.00004 0.165039C13.6034 0.165039 17.335 3.89671 17.335 8.50004C17.335 13.1025 13.6034 16.8334 9.00004 16.8334C4.39671 16.8342 0.665039 13.1025 0.665039 8.50004C0.665039 3.89671 4.39671 0.165039 9.00004 0.165039ZM6.05171 10.8192C6.00093 10.7547 5.93794 10.7008 5.86634 10.6606C5.79474 10.6205 5.71593 10.5948 5.63441 10.5851C5.46977 10.5655 5.30408 10.6121 5.17379 10.7146C5.10928 10.7654 5.0554 10.8284 5.01523 10.9C4.97506 10.9716 4.94939 11.0504 4.93967 11.1319C4.92006 11.2966 4.96666 11.4623 5.06921 11.5925C5.53686 12.1878 6.13376 12.669 6.81476 12.9996C7.49576 13.3302 8.24303 13.5016 9.00004 13.5009C9.75595 13.5016 10.5022 13.3307 11.1824 13.001C11.8626 12.6713 12.459 12.1914 12.9267 11.5975C12.9776 11.5331 13.0153 11.4593 13.0377 11.3804C13.06 11.3014 13.0666 11.2188 13.0571 11.1373C13.0475 11.0557 13.022 10.9769 12.982 10.9052C12.9419 10.8336 12.8882 10.7705 12.8238 10.7196C12.7594 10.6687 12.6856 10.631 12.6066 10.6087C12.5276 10.5863 12.445 10.5797 12.3635 10.5893C12.282 10.5988 12.2032 10.6243 12.1315 10.6644C12.0598 10.7044 11.9968 10.7581 11.9459 10.8225C11.5952 11.2683 11.1478 11.6285 10.6374 11.8759C10.1271 12.1233 9.56719 12.2516 9.00004 12.2509C7.83504 12.2509 6.75837 11.7175 6.05171 10.8192ZM6.50004 5.79171C6.36082 5.78777 6.22223 5.81179 6.09245 5.86234C5.96268 5.9129 5.84436 5.98896 5.7445 6.08604C5.64464 6.18312 5.56525 6.29924 5.51105 6.42753C5.45684 6.55582 5.42891 6.69368 5.42891 6.83296C5.42891 6.97223 5.45684 7.11009 5.51105 7.23838C5.56525 7.36667 5.64464 7.48279 5.7445 7.57987C5.84436 7.67695 5.96268 7.75301 6.09245 7.80357C6.22223 7.85413 6.36082 7.87814 6.50004 7.87421C6.7711 7.86654 7.02848 7.75347 7.21749 7.55903C7.4065 7.3646 7.51225 7.10412 7.51225 6.83296C7.51225 6.56179 7.4065 6.30131 7.21749 6.10688C7.02848 5.91244 6.7711 5.79937 6.50004 5.79171ZM11.5 5.79171C11.3608 5.78777 11.2222 5.81179 11.0925 5.86234C10.9627 5.9129 10.8444 5.98896 10.7445 6.08604C10.6446 6.18312 10.5653 6.29924 10.511 6.42753C10.4568 6.55582 10.4289 6.69368 10.4289 6.83296C10.4289 6.97223 10.4568 7.11009 10.511 7.23838C10.5653 7.36667 10.6446 7.48279 10.7445 7.57987C10.8444 7.67695 10.9627 7.75301 11.0925 7.80357C11.2222 7.85413 11.3608 7.87814 11.5 7.87421C11.7711 7.86654 12.0285 7.75347 12.2175 7.55903C12.4065 7.3646 12.5122 7.10412 12.5122 6.83296C12.5122 6.56179 12.4065 6.30131 12.2175 6.10688C12.0285 5.91244 11.7711 5.79937 11.5 5.79171Z" fill="#1D0D33"/>
</svg>
