<svg width="28" height="28" viewBox="0 0 28 28" fill="none" xmlns="http://www.w3.org/2000/svg">
<path d="M14 0.66394C21.3653 0.66394 27.336 6.63461 27.336 13.9999C27.336 21.3639 21.3653 27.3333 14 27.3333C6.63467 27.3346 0.664001 21.3639 0.664001 13.9999C0.664001 6.63461 6.63467 0.66394 14 0.66394ZM9.28267 17.7106C9.20142 17.6074 9.10064 17.5212 8.98608 17.4569C8.87152 17.3926 8.74543 17.3516 8.61499 17.336C8.35156 17.3046 8.08646 17.3792 7.878 17.5433C7.77478 17.6245 7.68858 17.7253 7.62431 17.8399C7.56003 17.9544 7.51896 18.0805 7.50342 18.211C7.47204 18.4744 7.54659 18.7395 7.71067 18.9479C8.45891 19.9004 9.41395 20.6702 10.5036 21.1992C11.5932 21.7282 12.7888 22.0025 14 22.0013C15.2095 22.0025 16.4034 21.729 17.4917 21.2015C18.5801 20.674 19.5344 19.9061 20.2827 18.9559C20.3641 18.8529 20.4244 18.7348 20.4602 18.6085C20.496 18.4821 20.5065 18.3499 20.4913 18.2195C20.476 18.0891 20.4351 17.9629 20.3711 17.8483C20.307 17.7336 20.221 17.6327 20.118 17.5513C20.015 17.4699 19.8969 17.4095 19.7705 17.3737C19.6442 17.3379 19.512 17.3274 19.3816 17.3427C19.2511 17.358 19.125 17.3988 19.0103 17.4629C18.8957 17.5269 18.7948 17.6129 18.7133 17.7159C18.1522 18.4291 17.4363 19.0054 16.6198 19.4013C15.8033 19.7972 14.9075 20.0024 14 20.0013C12.136 20.0013 10.4133 19.1479 9.28267 17.7106ZM10 9.66661C9.77725 9.66031 9.5555 9.69874 9.34787 9.77962C9.14023 9.86051 8.95092 9.98222 8.79114 10.1375C8.63136 10.2929 8.50434 10.4787 8.41761 10.6839C8.33088 10.8892 8.2862 11.1098 8.2862 11.3326C8.2862 11.5554 8.33088 11.776 8.41761 11.9813C8.50434 12.1866 8.63136 12.3723 8.79114 12.5277C8.95092 12.683 9.14023 12.8047 9.34787 12.8856C9.5555 12.9665 9.77725 13.0049 10 12.9986C10.4337 12.9863 10.8455 12.8054 11.1479 12.4943C11.4503 12.1832 11.6195 11.7665 11.6195 11.3326C11.6195 10.8987 11.4503 10.482 11.1479 10.1709C10.8455 9.85978 10.4337 9.67888 10 9.66661ZM18 9.66661C17.7773 9.66031 17.5555 9.69874 17.3479 9.77962C17.1402 9.86051 16.9509 9.98222 16.7911 10.1375C16.6314 10.2929 16.5043 10.4787 16.4176 10.6839C16.3309 10.8892 16.2862 11.1098 16.2862 11.3326C16.2862 11.5554 16.3309 11.776 16.4176 11.9813C16.5043 12.1866 16.6314 12.3723 16.7911 12.5277C16.9509 12.683 17.1402 12.8047 17.3479 12.8856C17.5555 12.9665 17.7773 13.0049 18 12.9986C18.4337 12.9863 18.8455 12.8054 19.1479 12.4943C19.4503 12.1832 19.6195 11.7665 19.6195 11.3326C19.6195 10.8987 19.4503 10.482 19.1479 10.1709C18.8455 9.85978 18.4337 9.67888 18 9.66661Z" fill="#684DF0"/>
</svg>
