<svg width="22" height="20" viewBox="0 0 22 20" fill="none" xmlns="http://www.w3.org/2000/svg">
<path d="M11 0C16.9832 0 21.8333 4.477 21.8333 10C21.8333 15.523 16.9832 20 11 20C9.24738 20.0021 7.52061 19.6102 5.96897 18.858L1.32147 19.975C1.16618 20.0123 1.00302 20.0116 0.848151 19.9728C0.693285 19.934 0.552093 19.8585 0.438569 19.7538C0.325044 19.6491 0.243129 19.5188 0.200941 19.3759C0.158753 19.233 0.157758 19.0824 0.198053 18.939L1.40705 14.65C0.590003 13.2162 0.164221 11.6201 0.166636 10C0.166636 4.477 5.01672 0 11 0ZM12.3563 11H7.47914L7.36864 11.007C7.17417 11.0317 6.99596 11.1206 6.86696 11.2571C6.73796 11.3937 6.66689 11.5688 6.66689 11.75C6.66689 11.9312 6.73796 12.1063 6.86696 12.2429C6.99596 12.3794 7.17417 12.4683 7.36864 12.493L7.47914 12.5H12.3563L12.4657 12.493C12.6602 12.4683 12.8384 12.3794 12.9674 12.2429C13.0964 12.1063 13.1675 11.9312 13.1675 11.75C13.1675 11.5688 13.0964 11.3937 12.9674 11.2571C12.8384 11.1206 12.6602 11.0317 12.4657 11.007L12.3563 11ZM14.5208 7.5H7.47914L7.36864 7.507C7.17417 7.5317 6.99596 7.62055 6.86696 7.75714C6.73796 7.89372 6.66689 8.0688 6.66689 8.25C6.66689 8.4312 6.73796 8.60628 6.86696 8.74286C6.99596 8.87945 7.17417 8.9683 7.36864 8.993L7.47914 9H14.5208L14.6313 8.993C14.8258 8.9683 15.004 8.87945 15.133 8.74286C15.262 8.60628 15.3331 8.4312 15.3331 8.25C15.3331 8.0688 15.262 7.89372 15.133 7.75714C15.004 7.62055 14.8258 7.5317 14.6313 7.507L14.5208 7.5Z" fill="#6532AD"/>
</svg>
