<svg width="28" height="28" viewBox="0 0 28 28" fill="none" xmlns="http://www.w3.org/2000/svg">
<path d="M0.666687 23.3333C0.666687 25.6 2.40002 27.3333 4.66669 27.3333H23.3334C25.6 27.3333 27.3334 25.6 27.3334 23.3333V12.6666H0.666687V23.3333ZM23.3334 3.33329H20.6667V1.99996C20.6667 1.19996 20.1334 0.666626 19.3334 0.666626C18.5334 0.666626 18 1.19996 18 1.99996V3.33329H10V1.99996C10 1.19996 9.46669 0.666626 8.66669 0.666626C7.86669 0.666626 7.33335 1.19996 7.33335 1.99996V3.33329H4.66669C2.40002 3.33329 0.666687 5.06663 0.666687 7.33329V9.99996H27.3334V7.33329C27.3334 5.06663 25.6 3.33329 23.3334 3.33329Z" fill="#684DF0"/>
</svg>
