<svg width="26" height="26" viewBox="0 0 26 26" fill="none" xmlns="http://www.w3.org/2000/svg">
<path d="M16.3091 3.10126C16.3426 3.23967 16.4083 3.36822 16.5009 3.47644C16.5935 3.58466 16.7103 3.66951 16.8419 3.72408C16.9734 3.77865 17.116 3.8014 17.258 3.79048C17.4 3.77957 17.5374 3.73529 17.6591 3.66126C20.7078 1.80501 24.1966 5.29251 22.3403 8.34126C22.2663 8.46284 22.222 8.60017 22.211 8.7421C22.2 8.88402 22.2226 9.02654 22.2771 9.15807C22.3315 9.2896 22.4162 9.40643 22.5243 9.49908C22.6323 9.59172 22.7608 9.65756 22.8991 9.69126C26.3678 10.5325 26.3678 15.4663 22.8991 16.3088C22.7606 16.3423 22.6321 16.408 22.5239 16.5006C22.4157 16.5932 22.3308 16.71 22.2762 16.8416C22.2217 16.9731 22.1989 17.1157 22.2098 17.2577C22.2208 17.3997 22.265 17.5371 22.3391 17.6588C24.1953 20.7075 20.7078 24.1963 17.6591 22.34C17.5375 22.266 17.4002 22.2217 17.2582 22.2107C17.1163 22.1997 16.9738 22.2223 16.8423 22.2768C16.7107 22.3312 16.5939 22.4159 16.5012 22.524C16.4086 22.632 16.3428 22.7605 16.3091 22.8988C15.4678 26.3675 10.5341 26.3675 9.69156 22.8988C9.65803 22.7603 9.5923 22.6318 9.49972 22.5236C9.40714 22.4153 9.29032 22.3305 9.15877 22.2759C9.02722 22.2214 8.88465 22.1986 8.74265 22.2095C8.60065 22.2204 8.46323 22.2647 8.34156 22.3388C5.29281 24.195 1.80406 20.7075 3.66031 17.6588C3.73435 17.5372 3.77867 17.3998 3.78966 17.2579C3.80065 17.116 3.77801 16.9735 3.72357 16.8419C3.66913 16.7104 3.58443 16.5936 3.47635 16.5009C3.36828 16.4083 3.23987 16.3424 3.10156 16.3088C-0.367187 15.4675 -0.367187 10.5338 3.10156 9.69126C3.23998 9.65772 3.36852 9.59199 3.47675 9.49941C3.58497 9.40683 3.66982 9.29001 3.72438 9.15846C3.77895 9.02691 3.80171 8.88434 3.79079 8.74234C3.77987 8.60034 3.7356 8.46292 3.66156 8.34126C1.80531 5.29251 5.29281 1.80376 8.34156 3.66001C8.46302 3.73461 8.60042 3.77938 8.74251 3.79065C8.8846 3.80193 9.02734 3.77939 9.15904 3.72488C9.29074 3.67037 9.40766 3.58544 9.50022 3.47704C9.59278 3.36865 9.65835 3.23987 9.69156 3.10126C10.5328 -0.367493 15.4666 -0.367493 16.3091 3.10126ZM13.0003 9.25001C12.0058 9.25001 11.0519 9.6451 10.3487 10.3484C9.6454 11.0516 9.25031 12.0054 9.25031 13C9.25031 13.9946 9.6454 14.9484 10.3487 15.6517C11.0519 16.3549 12.0058 16.75 13.0003 16.75C13.9949 16.75 14.9487 16.3549 15.652 15.6517C16.3552 14.9484 16.7503 13.9946 16.7503 13C16.7503 12.0054 16.3552 11.0516 15.652 10.3484C14.9487 9.6451 13.9949 9.25001 13.0003 9.25001Z" fill="#101828"/>
</svg>
