<svg width="20" height="20" viewBox="0 0 31 30" fill="none" xmlns="http://www.w3.org/2000/svg">
<path d="M15.4204 22.5C15.8454 22.5 16.2019 22.356 16.4899 22.068C16.7779 21.78 16.9214 21.424 16.9204 21C16.9204 20.575 16.7764 20.219 16.4884 19.932C16.2004 19.645 15.8444 19.501 15.4204 19.5C14.9954 19.5 14.6394 19.644 14.3524 19.932C14.0654 20.22 13.9214 20.576 13.9204 21C13.9204 21.425 14.0644 21.7815 14.3524 22.0695C14.6404 22.3575 14.9964 22.501 15.4204 22.5ZM13.9204 16.5H16.9204V7.5H13.9204V16.5ZM15.4204 30C13.3454 30 11.3954 29.606 9.57041 28.818C7.74541 28.03 6.15791 26.9615 4.80791 25.6125C3.45791 24.2625 2.38941 22.675 1.60241 20.85C0.81541 19.025 0.42141 17.075 0.42041 15C0.42041 12.925 0.81441 10.975 1.60241 9.15C2.39041 7.325 3.45891 5.7375 4.80791 4.3875C6.15791 3.0375 7.74541 1.969 9.57041 1.182C11.3954 0.395 13.3454 0.001 15.4204 0C17.4954 0 19.4454 0.394 21.2704 1.182C23.0954 1.97 24.6829 3.0385 26.0329 4.3875C27.3829 5.7375 28.4519 7.325 29.2399 9.15C30.0279 10.975 30.4214 12.925 30.4204 15C30.4204 17.075 30.0264 19.025 29.2384 20.85C28.4504 22.675 27.3819 24.2625 26.0329 25.6125C24.6829 26.9625 23.0954 28.0315 21.2704 28.8195C19.4454 29.6075 17.4954 30.001 15.4204 30Z" fill="#CA1C1C"/>
</svg>
